<?xml version="1.0" standalone="no"?>
<!DOCTYPE svg PUBLIC "-//W3C//DTD SVG 20010904//EN"
 "http://www.w3.org/TR/2001/REC-SVG-20010904/DTD/svg10.dtd">
<svg version="1.0" xmlns="http://www.w3.org/2000/svg"
 width="512.000000pt" height="512.000000pt" viewBox="0 0 512.000000 512.000000"
 preserveAspectRatio="xMidYMid meet">
<metadata>
Created by potrace 1.14, written by Peter Selinger 2001-2017
</metadata>
<g transform="translate(0.000000,512.000000) scale(0.100000,-0.100000)"
fill="#000000" stroke="none">
<path d="M330 5106 c-158 -44 -286 -178 -319 -334 -18 -85 -15 -4370 3 -4437
43 -162 176 -291 334 -324 85 -18 4370 -15 4437 3 162 43 291 176 324 334 18
85 15 4370 -3 4437 -43 162 -176 291 -334 324 -81 17 -4381 14 -4442 -3z m950
-786 l0 -160 160 0 160 0 0 -480 0 -480 -160 0 -160 0 0 -160 0 -160 -320 0
-320 0 0 800 0 800 320 0 320 0 0 -160z m1600 0 l0 -160 -320 0 -320 0 0 -160
0 -160 320 0 320 0 0 -480 0 -480 -480 0 -480 0 0 160 0 160 320 0 320 0 0
160 0 160 -320 0 -320 0 0 480 0 480 480 0 480 0 0 -160z m1280 0 l0 -160
-160 0 -160 0 0 -640 0 -640 -160 0 -160 0 0 640 0 640 -160 0 -160 0 0 160 0
160 480 0 480 0 0 -160z m-2880 -1920 l0 -160 -160 0 -160 0 0 -160 0 -160
160 0 160 0 0 -160 0 -160 -160 0 -160 0 0 -160 0 -160 160 0 160 0 0 -160 0
-160 -320 0 -320 0 0 800 0 800 320 0 320 0 0 -160z m960 0 l0 -160 160 0 160
0 0 -480 0 -480 -160 0 -160 0 0 -160 0 -160 -320 0 -320 0 0 800 0 800 320 0
320 0 0 -160z m960 -640 l0 -800 -160 0 -160 0 0 800 0 800 160 0 160 0 0
-800z m1280 640 l0 -160 -160 0 -160 0 0 -640 0 -640 -160 0 -160 0 0 640 0
640 -160 0 -160 0 0 160 0 160 480 0 480 0 0 -160z"/>
<path d="M960 3680 l0 -480 160 0 160 0 0 480 0 480 -160 0 -160 0 0 -480z"/>
<path d="M1920 1760 l0 -480 160 0 160 0 0 480 0 480 -160 0 -160 0 0 -480z"/>
</g>
</svg>
